# Blender 5.1.0
# www.blender.org
mtllib church.mtl
o Cube
v -0.220222 -1.000000 0.220222
v -0.220222 3.638828 0.220222
v -0.220222 -1.000000 -0.220222
v -0.220222 3.638828 -0.220222
v 0.220222 -1.000000 0.220222
v 0.220222 3.638828 0.220222
v 0.220222 -1.000000 -0.220222
v 0.220222 3.638828 -0.220222
v -0.220222 2.288209 0.220222
v -0.220222 2.288209 -0.220222
v 0.220222 2.288209 -0.220222
v 0.220222 2.288209 0.220222
v -0.220222 2.788209 0.220222
v -0.220222 2.788209 -0.220222
v 0.220222 2.788209 -0.220222
v 0.220222 2.788209 0.220222
v -0.220222 2.798943 -1.419291
v -0.220222 2.298943 -1.419291
v 0.220222 2.798943 -1.419291
v 0.220222 2.298943 -1.419291
v 0.220222 2.798943 1.419291
v 0.220222 2.298943 1.419291
v -0.220222 2.298943 1.419291
v -0.220222 2.798943 1.419291
vn -1.0000 -0.0000 -0.0000
vn -0.0000 -0.0000 -1.0000
vn 1.0000 -0.0000 -0.0000
vn -0.0000 -0.0000 1.0000
vn -0.0000 -1.0000 -0.0000
vn -0.0000 1.0000 -0.0000
vn -0.0000 -1.0000 0.0090
vn -0.0000 1.0000 0.0090
vn -0.0000 1.0000 -0.0090
vn -0.0000 -1.0000 -0.0090
vt 0.625000 0.000000
vt 0.562500 0.250000
vt 0.562500 0.000000
vt 0.625000 0.250000
vt 0.562500 0.500000
vt 0.625000 0.500000
vt 0.562500 0.750000
vt 0.625000 0.750000
vt 0.562500 1.000000
vt 0.375000 0.500000
vt 0.125000 0.750000
vt 0.125000 0.500000
vt 0.875000 0.500000
vt 0.500000 0.750000
vt 0.375000 1.000000
vt 0.375000 0.750000
vt 0.500000 0.500000
vt 0.500000 0.250000
vt 0.375000 0.250000
vt 0.500000 0.000000
vt 0.375000 0.000000
vt 0.500000 1.000000
vt 0.625000 1.000000
vt 0.875000 0.750000
s 0
f 2/1/1 14/2/1 13/3/1
f 4/4/2 15/5/2 14/2/2
f 8/6/3 16/7/3 15/5/3
f 6/8/4 13/9/4 16/7/4
f 7/10/5 1/11/5 3/12/5
f 4/13/6 6/8/6 8/6/6
f 12/14/4 1/15/4 5/16/4
f 11/17/3 5/16/3 7/10/3
f 10/18/2 7/10/2 3/19/2
f 9/20/1 3/19/1 1/21/1
f 15/5/3 20/17/3 19/5/3
f 15/5/3 12/14/3 11/17/3
f 12/14/7 23/22/7 9/22/7
f 13/3/1 10/18/1 9/20/1
f 21/7/4 23/22/4 22/14/4
f 17/2/2 20/17/2 18/18/2
f 15/5/8 17/2/8 14/2/8
f 16/7/3 22/14/3 12/14/3
f 13/9/9 21/7/9 16/7/9
f 14/2/1 18/18/1 10/18/1
f 13/3/1 23/20/1 24/3/1
f 10/18/10 20/17/10 11/17/10
f 2/1/1 4/4/1 14/2/1
f 4/4/2 8/6/2 15/5/2
f 8/6/3 6/8/3 16/7/3
f 6/8/4 2/23/4 13/9/4
f 7/10/5 5/16/5 1/11/5
f 4/13/6 2/24/6 6/8/6
f 12/14/4 9/22/4 1/15/4
f 11/17/3 12/14/3 5/16/3
f 10/18/2 11/17/2 7/10/2
f 9/20/1 10/18/1 3/19/1
f 15/5/3 11/17/3 20/17/3
f 15/5/3 16/7/3 12/14/3
f 12/14/7 22/14/7 23/22/7
f 13/3/1 14/2/1 10/18/1
f 21/7/4 24/9/4 23/22/4
f 17/2/2 19/5/2 20/17/2
f 15/5/8 19/5/8 17/2/8
f 16/7/3 21/7/3 22/14/3
f 13/9/9 24/9/9 21/7/9
f 14/2/1 17/2/1 18/18/1
f 13/3/1 9/20/1 23/20/1
f 10/18/10 18/18/10 20/17/10
